<svg xmlns="http://www.w3.org/2000/svg" viewBox="0 0 180 180">
  <!-- Rounded square background -->
  <rect width="180" height="180" rx="36" fill="#1a237e"/>
  <!-- Saffron top arc -->
  <path d="M18 52 Q90 10 162 52" fill="#e65100" opacity="0.85"/>
  <!-- Green bottom arc -->
  <path d="M18 128 Q90 170 162 128" fill="#1b5e20" opacity="0.85"/>
  <!-- Ashoka Chakra -->
  <circle cx="90" cy="90" r="36" fill="none" stroke="#fff" stroke-width="4"/>
  <circle cx="90" cy="90" r="8" fill="#fff"/>
  <g stroke="#fff" stroke-width="2.4" stroke-linecap="round">
    <line x1="90" y1="56" x2="90" y2="75"/>
    <line x1="90" y1="105" x2="90" y2="124"/>
    <line x1="56" y1="90" x2="75" y2="90"/>
    <line x1="105" y1="90" x2="124" y2="90"/>
    <line x1="66" y1="66" x2="79.3" y2="79.3"/>
    <line x1="100.7" y1="100.7" x2="114" y2="114"/>
    <line x1="114" y1="66" x2="100.7" y2="79.3"/>
    <line x1="79.3" y1="100.7" x2="66" y2="114"/>
    <line x1="73.4" y1="59.8" x2="81.6" y2="76.1"/>
    <line x1="98.4" y1="103.9" x2="106.6" y2="120.2"/>
    <line x1="120.2" y1="73.4" x2="103.9" y2="81.6"/>
    <line x1="76.1" y1="98.4" x2="59.8" y2="106.6"/>
    <line x1="59.8" y1="73.4" x2="76.1" y2="81.6"/>
    <line x1="103.9" y1="98.4" x2="120.2" y2="106.6"/>
    <line x1="106.6" y1="59.8" x2="98.4" y2="76.1"/>
    <line x1="81.6" y1="103.9" x2="73.4" y2="120.2"/>
    <line x1="62.1" y1="81" x2="78.8" y2="85.2"/>
    <line x1="101.2" y1="94.8" x2="117.9" y2="99"/>
    <line x1="99" y1="62.1" x2="94.8" y2="78.8"/>
    <line x1="85.2" y1="101.2" x2="81" y2="117.9"/>
    <line x1="117.9" y1="81" x2="101.2" y2="85.2"/>
    <line x1="78.8" y1="94.8" x2="62.1" y2="99"/>
    <line x1="81" y1="62.1" x2="85.2" y2="78.8"/>
    <line x1="94.8" y1="101.2" x2="99" y2="117.9"/>
  </g>
</svg>
