<svg xmlns="http://www.w3.org/2000/svg" viewBox="0 0 200 200" fill="none">
  <!-- Outer circle -->
  <circle cx="100" cy="100" r="96" stroke="#c4a54a" stroke-width="3" fill="none"/>
  <circle cx="100" cy="100" r="88" stroke="#c4a54a" stroke-width="1.5" fill="none"/>
  
  <!-- Inner filled circle (hub) -->
  <circle cx="100" cy="100" r="18" fill="#c4a54a"/>
  
  <!-- 24 spokes of the Ashoka Chakra -->
  <g stroke="#c4a54a" stroke-width="2.5" stroke-linecap="round">
    <line x1="100" y1="100" x2="100" y2="30"/>
    <line x1="100" y1="100" x2="117.9" y2="31.6"/>
    <line x1="100" y1="100" x2="134.5" y2="37.6"/>
    <line x1="100" y1="100" x2="148.5" y2="48.0"/>
    <line x1="100" y1="100" x2="159.0" y2="62.0"/>
    <line x1="100" y1="100" x2="165.4" y2="78.5"/>
    <line x1="100" y1="100" x2="168.0" y2="96.5"/>
    <line x1="100" y1="100" x2="166.5" y2="114.5"/>
    <line x1="100" y1="100" x2="161.0" y2="131.5"/>
    <line x1="100" y1="100" x2="151.5" y2="146.5"/>
    <line x1="100" y1="100" x2="138.5" y2="158.5"/>
    <line x1="100" y1="100" x2="123.0" y2="167.0"/>
    <line x1="100" y1="100" x2="106.0" y2="170.5"/>
    <line x1="100" y1="100" x2="88.5" y2="169.5"/>
    <line x1="100" y1="100" x2="72.0" y2="164.0"/>
    <line x1="100" y1="100" x2="57.5" y2="154.5"/>
    <line x1="100" y1="100" x2="45.5" y2="141.5"/>
    <line x1="100" y1="100" x2="37.0" y2="125.5"/>
    <line x1="100" y1="100" x2="32.5" y2="108.0"/>
    <line x1="100" y1="100" x2="32.0" y2="90.0"/>
    <line x1="100" y1="100" x2="35.5" y2="72.5"/>
    <line x1="100" y1="100" x2="43.0" y2="56.5"/>
    <line x1="100" y1="100" x2="54.0" y2="43.0"/>
    <line x1="100" y1="100" x2="67.5" y2="33.0"/>
  </g>
  
  <!-- Outer rim circle -->
  <circle cx="100" cy="100" r="72" stroke="#c4a54a" stroke-width="2" fill="none"/>
  
  <!-- Decorative dots at spoke tips (24) -->
  <g fill="#c4a54a">
    <circle cx="100" cy="28" r="3.5"/>
    <circle cx="118.5" cy="29.5" r="3.5"/>
    <circle cx="135.5" cy="35.5" r="3.5"/>
    <circle cx="149.5" cy="46" r="3.5"/>
    <circle cx="160" cy="60" r="3.5"/>
    <circle cx="166.5" cy="76.5" r="3.5"/>
    <circle cx="169" cy="94.5" r="3.5"/>
    <circle cx="167.5" cy="113" r="3.5"/>
    <circle cx="162" cy="130" r="3.5"/>
    <circle cx="152.5" cy="145" r="3.5"/>
    <circle cx="139.5" cy="157.5" r="3.5"/>
    <circle cx="124" cy="166" r="3.5"/>
    <circle cx="107" cy="170" r="3.5"/>
    <circle cx="89.5" cy="169.5" r="3.5"/>
    <circle cx="73" cy="163" r="3.5"/>
    <circle cx="58.5" cy="153" r="3.5"/>
    <circle cx="47" cy="140" r="3.5"/>
    <circle cx="38" cy="124" r="3.5"/>
    <circle cx="33.5" cy="107" r="3.5"/>
    <circle cx="33" cy="89" r="3.5"/>
    <circle cx="36.5" cy="71.5" r="3.5"/>
    <circle cx="44" cy="55.5" r="3.5"/>
    <circle cx="55" cy="42" r="3.5"/>
    <circle cx="68.5" cy="32" r="3.5"/>
  </g>
  
  <!-- "सत्यमेव जयते" text at bottom -->
  <text x="100" y="192" text-anchor="middle" fill="#c4a54a" font-size="14" font-family="serif" font-weight="bold" letter-spacing="1">सत्यमेव जयते</text>
</svg>
