<svg xmlns="http://www.w3.org/2000/svg" viewBox="0 0 64 64">
  <!-- Navy circle background -->
  <circle cx="32" cy="32" r="32" fill="#1a237e"/>
  <!-- Saffron top band -->
  <path d="M6.3 18A30 30 0 0 1 57.7 18" fill="#e65100" opacity="0.9"/>
  <!-- Green bottom band -->
  <path d="M6.3 46A30 30 0 0 0 57.7 46" fill="#1b5e20" opacity="0.9"/>
  <!-- Ashoka Chakra — 24 spokes -->
  <circle cx="32" cy="32" r="13" fill="none" stroke="#fff" stroke-width="2"/>
  <circle cx="32" cy="32" r="3" fill="#fff"/>
  <g stroke="#fff" stroke-width="1.2" stroke-linecap="round">
    <line x1="32" y1="20" x2="32" y2="27"/>
    <line x1="32" y1="37" x2="32" y2="44"/>
    <line x1="20" y1="32" x2="27" y2="32"/>
    <line x1="37" y1="32" x2="44" y2="32"/>
    <line x1="23.5" y1="23.5" x2="28.2" y2="28.2"/>
    <line x1="35.8" y1="35.8" x2="40.5" y2="40.5"/>
    <line x1="40.5" y1="23.5" x2="35.8" y2="28.2"/>
    <line x1="28.2" y1="35.8" x2="23.5" y2="40.5"/>
    <line x1="26.1" y1="21.3" x2="29.0" y2="27.1"/>
    <line x1="35.0" y1="36.9" x2="37.9" y2="42.7"/>
    <line x1="42.7" y1="26.1" x2="36.9" y2="29.0"/>
    <line x1="27.1" y1="35.0" x2="21.3" y2="37.9"/>
    <line x1="21.3" y1="26.1" x2="27.1" y2="29.0"/>
    <line x1="36.9" y1="35.0" x2="42.7" y2="37.9"/>
    <line x1="37.9" y1="21.3" x2="35.0" y2="27.1"/>
    <line x1="29.0" y1="36.9" x2="26.1" y2="42.7"/>
    <line x1="22.5" y1="28.8" x2="28.4" y2="30.3"/>
    <line x1="35.6" y1="33.7" x2="41.5" y2="35.2"/>
    <line x1="35.2" y1="22.5" x2="33.7" y2="28.4"/>
    <line x1="30.3" y1="35.6" x2="28.8" y2="41.5"/>
    <line x1="41.5" y1="28.8" x2="35.6" y2="30.3"/>
    <line x1="28.4" y1="33.7" x2="22.5" y2="35.2"/>
    <line x1="28.8" y1="22.5" x2="30.3" y2="28.4"/>
    <line x1="33.7" y1="35.6" x2="35.2" y2="41.5"/>
  </g>
</svg>
